<svg xmlns="http://www.w3.org/2000/svg" width="37.215" height="36.665" viewBox="0 0 37.215 36.665">
  <g id="Group_295" data-name="Group 295" transform="translate(-1 -1)">
    <path id="Path_175" data-name="Path 175" d="M0,0H1.672V1.183H0Z" transform="translate(5.309 34.88) rotate(-45)" fill="#9fce63"/>
    <path id="Path_176" data-name="Path 176" d="M14.875,55H13v1.183h1.875a.589.589,0,0,1,.419.173l.836.836.836-.836-.836-.836A1.764,1.764,0,0,0,14.875,55Z" transform="translate(-4.903 -22.065)" fill="#9fce63"/>
    <path id="Path_177" data-name="Path 177" d="M38.215,36.46H36a8.6,8.6,0,0,0,1.668-5.1V24.656a1.184,1.184,0,0,0-1.183-1.183H32.935V10.222A6.967,6.967,0,0,0,36.484,4.13V2.183A1.184,1.184,0,0,0,35.3,1H25.839a1.184,1.184,0,0,0-1.183,1.183V4.13A6.968,6.968,0,0,0,28.2,10.222V23.473H24.656a1.184,1.184,0,0,0-1.183,1.183v6.708c0,.129.018.259.024.389H22.29a2.383,2.383,0,0,0-1.419.473l-.946.71h-.448a1.177,1.177,0,0,1-.837-.347l-2.4-2.4a2.733,2.733,0,0,0-3.865,0l-.141.141a3.463,3.463,0,0,0-.588-.447V25.839h2.235a6.051,6.051,0,0,0,6.044-6.044V18.651l-4.273.61a5.98,5.98,0,0,0-1.876.6,7.792,7.792,0,0,0-1.08-6.23L11.054,11.17,9.412,13.633A7.806,7.806,0,0,0,8.1,17.977c0,.2.01.4.026.6a6.056,6.056,0,0,0-1.667-.5l-4.273-.61v1.144a6.051,6.051,0,0,0,6.044,6.043h2.235V29.44a3.508,3.508,0,0,0-.591-.053,3.425,3.425,0,0,0-1.693.446L6.7,29.463a2.575,2.575,0,0,0-2.61.881L2.865,31.874a1.763,1.763,0,0,0-.947.859l-.653,1.308A2.5,2.5,0,0,0,3.5,37.665h0l34.71-.022Zm-22.4-16.027,2.918-.417a4.868,4.868,0,0,1-4.857,4.64H12.412a10.2,10.2,0,0,1,3-1.816l-.439-1.1a11.6,11.6,0,0,0-2.984,1.72,4.885,4.885,0,0,1,3.829-3.029ZM10.4,14.289l.658-.986.658.986a6.648,6.648,0,0,1,.218,7.026c-.1.115-.193.235-.284.357v-4.7H10.462v4.788a6.638,6.638,0,0,1-.066-7.466ZM3.37,18.833l2.918.417a4.871,4.871,0,0,1,2.107.843,7.81,7.81,0,0,0,.519,1.348,12.331,12.331,0,0,0-1.781-.884l-.439,1.1a10.224,10.224,0,0,1,3,1.817H8.227a4.868,4.868,0,0,1-4.857-4.64ZM31.753,22.29H29.387V8.688a.592.592,0,0,1,.591-.591h1.183a.592.592,0,0,1,.591.591Zm-2.366,1.183h2.366v.9A8.146,8.146,0,0,1,30.9,28a.379.379,0,0,1-.653,0,8.135,8.135,0,0,1-.856-3.625ZM35.3,2.183V3.366H25.839V2.183ZM25.868,4.548h9.4a5.771,5.771,0,0,1-2.337,4.259V8.688a1.776,1.776,0,0,0-1.774-1.774H29.978A1.776,1.776,0,0,0,28.2,8.688v.119A5.771,5.771,0,0,1,25.868,4.548ZM24.656,24.656h3.565a9.322,9.322,0,0,0,.965,3.875,1.548,1.548,0,0,0,2.77,0,9.331,9.331,0,0,0,.965-3.875h3.564v6.708a7.424,7.424,0,0,1-2.016,5.1H32.7L32.017,35.1a1.765,1.765,0,0,0-1.587-.981H29.9l-.086-.13a2.36,2.36,0,0,0-1.968-1.053h-.879a1.178,1.178,0,0,1-.656-.2l-.881-.587a2.354,2.354,0,0,0-.747-.323c-.01-.155-.028-.31-.028-.463ZM29,35.628a.588.588,0,0,1,.529-.327h.9a.588.588,0,0,1,.529.327l.418.837-2.8,0ZM22.29,32.935h1.829a1.178,1.178,0,0,1,.656.2l.881.587a2.357,2.357,0,0,0,1.312.4h.879a1.176,1.176,0,0,1,.74.268,1.772,1.772,0,0,0-.647.713l-.684,1.368-4.015,0-1.114-2.227a2.36,2.36,0,0,0-.783-.893l.237-.177a1.187,1.187,0,0,1,.71-.237ZM3.505,36.483h0a1.322,1.322,0,0,1-1.322-1.321,1.331,1.331,0,0,1,.14-.591l.654-1.308a.588.588,0,0,1,.529-.327H5.14V31.753H4.478l.535-.669a1.382,1.382,0,0,1,1.4-.473l.646.161-.563.563.836.836.938-.938a2.32,2.32,0,0,1,3.2,0L13,32.762l.836-.836-.765-.765.137-.137a1.588,1.588,0,0,1,2.192,0l2.4,2.4a2.353,2.353,0,0,0,1.673.693h.534a1.177,1.177,0,0,1,1.058.653l.849,1.7Z" transform="translate(0 0)" fill="#9fce63"/>
    <path id="Path_178" data-name="Path 178" d="M0,0H1.672V1.183H0Z" transform="translate(14.179 34.29) rotate(-45)" fill="#9fce63"/>
  </g>
</svg>
