<svg xmlns="http://www.w3.org/2000/svg" width="26" height="21.636" viewBox="0 0 26 21.636">
  <g id="Icon_feather-camera" data-name="Icon feather-camera" transform="translate(1 1)">
    <path id="Path_23" data-name="Path 23" d="M25.5,21.955a2.182,2.182,0,0,1-2.182,2.182H3.682A2.182,2.182,0,0,1,1.5,21.955v-12A2.182,2.182,0,0,1,3.682,7.773H8.045L10.227,4.5h6.545l2.182,3.273h4.364A2.182,2.182,0,0,1,25.5,9.955Z" transform="translate(-1.5 -4.5)" fill="none" stroke="#396" stroke-linecap="round" stroke-linejoin="round" stroke-width="2"/>
    <path id="Path_24" data-name="Path 24" d="M20.727,17.864A4.364,4.364,0,1,1,16.364,13.5,4.364,4.364,0,0,1,20.727,17.864Z" transform="translate(-4.364 -6.955)" fill="none" stroke="#396" stroke-linecap="round" stroke-linejoin="round" stroke-width="2"/>
  </g>
</svg>
