<svg xmlns="http://www.w3.org/2000/svg" width="40.548" height="30.412" viewBox="0 0 40.548 30.412">
  <g id="Group_300" data-name="Group 300" transform="translate(0 -63.998)">
    <g id="Group_299" data-name="Group 299" transform="translate(0 63.998)">
      <g id="Group_298" data-name="Group 298" transform="translate(0 0)">
        <path id="Path_184" data-name="Path 184" d="M40.441,79.637A19.831,19.831,0,0,0,25,69.209c-3.262-4.121-13.5-5.164-13.941-5.207a.845.845,0,0,0-.869,1.144,68.111,68.111,0,0,1,2.3,6.781,28.715,28.715,0,0,0-4.531,2.509c-2.272-3.635-6.91-3.68-7.122-3.68A.844.844,0,0,0,0,71.6c0,4.894,1.706,7.351,2.847,8.448C1.706,81.145,0,83.6,0,88.5a.844.844,0,0,0,.845.845c.212,0,4.85-.045,7.122-3.68a33.036,33.036,0,0,0,6.427,3.321,8.981,8.981,0,0,0-.878,4.583.844.844,0,0,0,.845.845c.251,0,6-.05,8.857-3.406A19.805,19.805,0,0,0,40.441,80.46.845.845,0,0,0,40.441,79.637ZM12.268,65.852c2.838.411,7.5,1.422,10.132,3.231a26.744,26.744,0,0,0-8.335,2.165C13.691,69.763,12.861,67.444,12.268,65.852Zm2.958,26.819c.113-2.35.655-2.95.807-3.073a27.485,27.485,0,0,0,4.829,1.267A12.234,12.234,0,0,1,15.225,92.671Zm.709-3.1v0l.007,0Zm6.874-.226c-4.937,0-13.008-4.053-14.5-5.583a.843.843,0,0,0-.6-.254.891.891,0,0,0-.154.014.845.845,0,0,0-.621.5,6.448,6.448,0,0,1-5.215,3.563c.264-5.294,2.769-6.709,2.9-6.777a.849.849,0,0,0,0-1.5c-.113-.06-2.633-1.465-2.9-6.773,1.393.2,4.084.936,5.215,3.558a.844.844,0,0,0,1.379.256c1.495-1.53,9.566-5.583,14.5-5.583A18.124,18.124,0,0,1,38.73,80.048,18.123,18.123,0,0,1,22.809,89.341Z" transform="translate(0 -63.998)" fill="#00aff0"/>
        <path id="Path_185" data-name="Path 185" d="M300.356,178.283a12.358,12.358,0,0,1,1.549-6.292.845.845,0,0,0-1.407-.935,15.174,15.174,0,0,0,0,14.453.845.845,0,1,0,1.406-.937A12.194,12.194,0,0,1,300.356,178.283Z" transform="translate(-275.014 -162.233)" fill="#00aff0"/>
        <path id="Path_186" data-name="Path 186" d="M259,170.822a.845.845,0,0,0-1.168.235A13.78,13.78,0,0,0,256,178.284a15.391,15.391,0,0,0,.938,5.366.845.845,0,0,0,1.582-.592,13.7,13.7,0,0,1-.831-4.774,12.359,12.359,0,0,1,1.549-6.292A.847.847,0,0,0,259,170.822Z" transform="translate(-235.726 -162.234)" fill="#00aff0"/>
        <circle id="Ellipse_12" data-name="Ellipse 12" cx="1.689" cy="1.689" r="1.689" transform="translate(28.722 11.827)" fill="#00aff0"/>
      </g>
    </g>
  </g>
</svg>
