<svg xmlns="http://www.w3.org/2000/svg" width="31.086" height="20.307" viewBox="0 0 31.086 20.307">
  <g id="Icon_feather-users" data-name="Icon feather-users" transform="translate(6.314 -3.415)">
    <path id="Path_5" data-name="Path 5" d="M17.7,28.574V26.549A4.049,4.049,0,0,0,13.648,22.5h-8.1A4.049,4.049,0,0,0,1.5,26.549v2.025" transform="translate(0 -5.852)" fill="none" stroke="#396" stroke-linecap="round" stroke-linejoin="round" stroke-width="2"/>
    <path id="Path_6" data-name="Path 6" d="M15.6,8.549A4.049,4.049,0,1,1,11.549,4.5,4.049,4.049,0,0,1,15.6,8.549Z" transform="translate(-1.951)" fill="none" stroke="#396" stroke-linecap="round" stroke-linejoin="round" stroke-width="2"/>
    <path id="Path_7" data-name="Path 7" d="M33.037,28.637V26.613A4.049,4.049,0,0,0,30,22.7" transform="translate(-9.266 -5.915)" fill="none" stroke="#396" stroke-linecap="round" stroke-linejoin="round" stroke-width="2"/>
    <path id="Path_8" data-name="Path 8" d="M24,4.7a4.049,4.049,0,0,1,0,7.846" transform="translate(-7.315 -0.063)" fill="none" stroke="#396" stroke-linecap="round" stroke-linejoin="round" stroke-width="2"/>
    <path id="Path_189" data-name="Path 189" d="M30,28.637V26.613A4.049,4.049,0,0,1,33.037,22.7" transform="translate(-35.314 -5.915)" fill="none" stroke="#396" stroke-linecap="round" stroke-linejoin="round" stroke-width="2"/>
    <path id="Path_190" data-name="Path 190" d="M27.045,4.7a4.049,4.049,0,0,0,0,7.846" transform="translate(-25.274 -0.063)" fill="none" stroke="#396" stroke-linecap="round" stroke-linejoin="round" stroke-width="2"/>
  </g>
</svg>
