<svg xmlns="http://www.w3.org/2000/svg" width="19.704" height="19.693" viewBox="0 0 19.704 19.693">
  <path id="home" d="M18.5,7.261l-6.069-6.07a4.007,4.007,0,0,0-5.659,0L.7,7.261a2.383,2.383,0,0,0-.7,1.7v7.855a2.4,2.4,0,0,0,2.4,2.4H16.8a2.4,2.4,0,0,0,2.4-2.4V8.958A2.383,2.383,0,0,0,18.5,7.261ZM12,17.614H7.2V14.466a2.4,2.4,0,1,1,4.8,0Zm5.6-.8a.8.8,0,0,1-.8.8H13.6V14.466a4,4,0,1,0-8,0v3.148H2.4a.8.8,0,0,1-.8-.8V8.958a.807.807,0,0,1,.234-.566L7.9,2.325a2.407,2.407,0,0,1,3.4,0l6.069,6.07a.807.807,0,0,1,.234.563Z" transform="translate(0.25 0.229)" fill="#396" stroke="#396" stroke-width="0.5"/>
</svg>
