<svg xmlns="http://www.w3.org/2000/svg" width="37.942" height="36.532" viewBox="0 0 37.942 36.532">
  <g id="Group_296" data-name="Group 296" transform="translate(-0.016 -2.384)">
    <path id="Path_179" data-name="Path 179" d="M37.619,14.193l-4.755-7.75a.518.518,0,0,0-.3-.228L19.126,2.4a.517.517,0,0,0-.283,0L5.407,6.215a.518.518,0,0,0-.3.228L.35,14.193A2.3,2.3,0,0,0,3.7,17.227V38.4a.519.519,0,0,0,.519.519H33.748a.519.519,0,0,0,.519-.519V17.227a2.338,2.338,0,0,0,2.584.125,2.292,2.292,0,0,0,.769-3.16Zm-27.7,13.78,6,4.013L9.918,36Zm3.323,9.905,5.744-3.84,5.744,3.841Zm13.354,0-7.322-4.9a.519.519,0,0,0-.577,0l-7.322,4.9H9.918v-.631L17.14,32.42a.524.524,0,0,0,0-.862L9.918,26.726v-.631h1.456l7.322,4.9a.52.52,0,0,0,.577,0l7.322-4.9h1.456v.631l-7.224,4.83a.524.524,0,0,0,0,.862l7.222,4.83v.631ZM13.241,26.095H24.728l-5.744,3.841ZM28.051,36l-6-4.013,6-4.014Zm5.178,1.879h-4.14v-12.3a.519.519,0,0,0-.519-.519H9.4a.519.519,0,0,0-.519.519v12.3H4.74V15.852L8.211,10.2,18.984,7.142,29.758,10.2l3.47,5.656Zm3.656-22.194a1.25,1.25,0,0,1-.572.78,1.278,1.278,0,0,1-1.749-.42L30.537,9.482a.518.518,0,0,0-.3-.228L19.126,6.1a.517.517,0,0,0-.283,0L7.733,9.254a.518.518,0,0,0-.3.228L3.405,16.045a1.268,1.268,0,1,1-2.171-1.31L5.883,7.158l13.1-3.715,13.1,3.715,4.649,7.577a1.243,1.243,0,0,1,.15.95Z" transform="translate(0)" fill="#70309f"/>
    <path id="Path_180" data-name="Path 180" d="M53.559,35.034H41.6a.519.519,0,0,0-.519.519v7.955a.519.519,0,0,0,.519.519H53.559a.519.519,0,0,0,.519-.519V35.553a.519.519,0,0,0-.519-.519Zm-.519,7.955H42.121V36.072H53.04Z" transform="translate(-28.893 -22.971)" fill="#70309f"/>
    <path id="Path_181" data-name="Path 181" d="M49.6,47.283h7.214a.519.519,0,0,0,.519-.519V43.553a.519.519,0,0,0-.519-.519H49.6a.519.519,0,0,0-.519.519v3.212A.519.519,0,0,0,49.6,47.283Zm.519-3.212H56.3v2.174H50.121Z" transform="translate(-34.521 -28.599)" fill="#70309f"/>
  </g>
</svg>
