<svg xmlns="http://www.w3.org/2000/svg" width="15.996" height="19.495" viewBox="0 0 15.996 19.495">
  <g id="Icon_feather-clipboard" data-name="Icon feather-clipboard" transform="translate(-5 -2)">
    <path id="Path_19" data-name="Path 19" d="M16.5,6h1.75A1.75,1.75,0,0,1,20,7.75V20a1.75,1.75,0,0,1-1.75,1.75H7.75A1.75,1.75,0,0,1,6,20V7.75A1.75,1.75,0,0,1,7.75,6H9.5" transform="translate(0 -1.25)" fill="none" stroke="#396" stroke-linecap="round" stroke-linejoin="round" stroke-width="2"/>
    <path id="Path_20" data-name="Path 20" d="M12.875,3h5.249A.875.875,0,0,1,19,3.875v1.75a.875.875,0,0,1-.875.875H12.875A.875.875,0,0,1,12,5.624V3.875A.875.875,0,0,1,12.875,3Z" transform="translate(-2.501)" fill="none" stroke="#396" stroke-linecap="round" stroke-linejoin="round" stroke-width="2"/>
  </g>
</svg>
