<svg xmlns="http://www.w3.org/2000/svg" width="25.27" height="25.27" viewBox="0 0 25.27 25.27">
  <g id="Icon_feather-settings" data-name="Icon feather-settings" transform="translate(-0.5 -0.5)">
    <path id="Path_187" data-name="Path 187" d="M19.846,16.673A3.173,3.173,0,1,1,16.673,13.5,3.173,3.173,0,0,1,19.846,16.673Z" transform="translate(-3.538 -3.538)" fill="none" stroke="#396" stroke-linecap="round" stroke-linejoin="round" stroke-width="2"/>
    <path id="Path_188" data-name="Path 188" d="M20.962,16.308a1.745,1.745,0,0,0,.349,1.925l.063.063a2.117,2.117,0,1,1-2.993,2.993l-.063-.063a1.759,1.759,0,0,0-2.983,1.248v.18a2.115,2.115,0,1,1-4.231,0v-.1a1.745,1.745,0,0,0-1.142-1.6,1.745,1.745,0,0,0-1.925.349l-.063.063A2.117,2.117,0,1,1,4.98,18.381l.063-.063A1.759,1.759,0,0,0,3.8,15.335h-.18a2.115,2.115,0,1,1,0-4.231h.1a1.745,1.745,0,0,0,1.6-1.142,1.745,1.745,0,0,0-.349-1.925L4.9,7.973A2.117,2.117,0,1,1,7.889,4.98l.063.063a1.745,1.745,0,0,0,1.925.349h.085a1.745,1.745,0,0,0,1.058-1.6v-.18a2.115,2.115,0,1,1,4.231,0v.1a1.759,1.759,0,0,0,2.983,1.248L18.3,4.9A2.117,2.117,0,1,1,21.29,7.889l-.063.063a1.745,1.745,0,0,0-.349,1.925v.085a1.745,1.745,0,0,0,1.6,1.058h.18a2.115,2.115,0,1,1,0,4.231h-.1a1.745,1.745,0,0,0-1.6,1.058Z" transform="translate(0 0)" fill="none" stroke="#396" stroke-linecap="round" stroke-linejoin="round" stroke-width="2"/>
  </g>
</svg>
