<svg xmlns="http://www.w3.org/2000/svg" width="21.271" height="29.248" viewBox="0 0 21.271 29.248">
  <path id="Icon_material-sync" data-name="Icon material-sync" d="M16.636,5.488V1.5L11.318,6.818l5.318,5.318V8.147a7.983,7.983,0,0,1,7.977,7.977,7.8,7.8,0,0,1-.931,3.722l1.941,1.941a10.544,10.544,0,0,0,1.649-5.663A10.785,10.785,0,0,0,24.257,8.7,10.432,10.432,0,0,0,16.636,5.488Zm0,18.612a7.983,7.983,0,0,1-7.977-7.977A7.8,7.8,0,0,1,9.59,12.4L7.649,10.461a10.617,10.617,0,0,0,8.987,16.3v3.988l5.318-5.318-5.318-5.318Z" transform="translate(-6 -1.5)" fill="#396"/>
</svg>
