<svg xmlns="http://www.w3.org/2000/svg" width="36.305" height="36.316" viewBox="0 0 36.305 36.316">
  <path id="Path_182" data-name="Path 182" d="M39.579,37.738a2.626,2.626,0,0,0-2.357-1.255,2.47,2.47,0,0,0-3-.49,2.671,2.671,0,0,0-2.3.367L31.713,29.6l3.826-3.734a4.009,4.009,0,0,0,4.713-3.152,3.591,3.591,0,0,0,.061-1.01,3.311,3.311,0,0,0-.551-4.652,3.276,3.276,0,0,0-1.53-.673,3.494,3.494,0,0,0-1.041-2.02v-.306a5.283,5.283,0,0,0-5.264-5.264,5.363,5.363,0,0,0-4.713-2.816,4.923,4.923,0,0,0-1.775.306,4.894,4.894,0,0,0-6.917-.4,5.188,5.188,0,0,0-.673.734,2.168,2.168,0,0,0-.428-.031A4.261,4.261,0,0,0,13.2,10.317a4.026,4.026,0,0,0-3.458,3.305,3.467,3.467,0,0,0-2.2,2.754,3.34,3.34,0,0,0-2.724,3.795,3.147,3.147,0,0,0,.673,1.53,4.145,4.145,0,0,0,1.775,3.581,4.153,4.153,0,0,0,3,.581L14.116,29.6l-.245,7.192a2.779,2.779,0,0,0-1.377-.337,2.147,2.147,0,0,0-3-.49A2.625,2.625,0,0,0,6.22,37.738,3.2,3.2,0,0,0,4.782,40.4a.569.569,0,0,0,.551.551H40.527a.549.549,0,0,0,.551-.551A3.421,3.421,0,0,0,39.579,37.738Zm-8.814-8.722a.47.47,0,0,0-.153.4l.275,8.355a3.224,3.224,0,0,0-.949.979l.245-7.314a.645.645,0,0,0-.153-.4l-3.672-3.7.275-.275,2.693,2.724a.536.536,0,0,0,.765,0,.507.507,0,0,0,.153-.367l.153-5.08h.061l.092,3.06a.523.523,0,0,0,.551.52.565.565,0,0,0,.367-.153l2.632-2.54c.122.061.214.153.337.214Zm-6.366.337,1.224-1.224,3.489,3.519-.275,8.233h-4.07Zm4.9-4.009L29.2,28.129l-1.775-1.806A3.467,3.467,0,0,0,29.3,25.344Zm2.234-1.01a3.75,3.75,0,0,0,1.285-.428,4.179,4.179,0,0,0,.459.643L31.591,26.17ZM37.191,16.9a.549.549,0,0,0,.551.551,2.231,2.231,0,0,1,1.653,3.734.548.548,0,0,0-.122.428c0,.122.031.214.031.337a2.939,2.939,0,0,1-2.938,2.938,2.937,2.937,0,0,1-2.754-1.959.507.507,0,0,0-.826-.245,2.874,2.874,0,0,1-2.326.581l.428-.428a2.8,2.8,0,0,0,.49-.031,3.661,3.661,0,0,0,3.244-4.07.184.184,0,0,0-.031-.122,5.4,5.4,0,0,0,2.357-2.846A2.9,2.9,0,0,1,37.191,16.9ZM13.749,11.388a.569.569,0,0,0,.551-.551,3.194,3.194,0,0,1,3.152-3.183,4.148,4.148,0,0,1,.612.061.563.563,0,0,0,.551-.245,3.842,3.842,0,0,1,5.295-1.163,3.623,3.623,0,0,1,1.01.918.525.525,0,0,0,.643.153,4.26,4.26,0,0,1,5.631,2.173.5.5,0,0,0,.52.306h.275a4.172,4.172,0,0,1,1.775,7.957.487.487,0,0,0-.275.612,2.587,2.587,0,0,1-1.836,3.183,2.56,2.56,0,0,1-1.959-.245.491.491,0,0,0-.459-.031A3.849,3.849,0,0,1,24.246,19.1a.521.521,0,0,0-.673-.306,3.772,3.772,0,0,1-3.581-.612.518.518,0,0,0-.826.245,3.854,3.854,0,0,1-4.9,2.326,3.807,3.807,0,0,1-2.51-4.07.548.548,0,0,0-.122-.428,2.949,2.949,0,0,1,.184-4.162,2.915,2.915,0,0,1,1.928-.7ZM26.939,22.65l-2.632,2.663-.122-4.162A4.73,4.73,0,0,0,26.939,22.65ZM21.644,20.08l-.092,2.754L19.1,20.478a4.6,4.6,0,0,0,.7-1.01A4.5,4.5,0,0,0,21.644,20.08ZM6.526,21.947a1.255,1.255,0,0,1,.031-.337.548.548,0,0,0-.122-.428,2.234,2.234,0,0,1,1.653-3.734.549.549,0,0,0,.551-.551,2.453,2.453,0,0,1,1.132-2.05,4.108,4.108,0,0,0,.857,2.02V17.2a4.911,4.911,0,0,0,4.9,4.9,3.8,3.8,0,0,0,1.01-.122l3.428,3.305a2.9,2.9,0,0,1-3.428-1.836.521.521,0,0,0-.673-.306,2.967,2.967,0,0,1-2.754-.459.539.539,0,0,0-.765.092.669.669,0,0,0-.092.153,2.949,2.949,0,0,1-5.723-.979Zm10.161,9.7,4.774-4.835-.428,13.068h-4.07Zm1.653-5.295-1.775,1.806-.092-2.785A4.579,4.579,0,0,0,18.339,26.354Zm-4.07-2.02-.061,1.836-1.683-1.653a3.446,3.446,0,0,0,.459-.643A3.245,3.245,0,0,0,14.269,24.334Zm-2.907,1.132a1.264,1.264,0,0,0,.337-.214l2.632,2.54a.536.536,0,0,0,.765,0,.507.507,0,0,0,.153-.367l.092-3.06H15.4l.153,5.05a.523.523,0,0,0,.551.52.565.565,0,0,0,.367-.153l3.336-3.366a4.343,4.343,0,0,0,.673-.153l-4.713,4.8a.582.582,0,0,0-.153.4l.245,7.314a2.9,2.9,0,0,0-.949-.979l.275-8.386a.582.582,0,0,0-.153-.4ZM14.3,39.881H5.914A2.13,2.13,0,0,1,6.924,38.6a.488.488,0,0,0,.275-.367A1.581,1.581,0,0,1,9.342,37.1a.527.527,0,0,0,.52-.061,1.327,1.327,0,0,1,1.959.337.518.518,0,0,0,.52.214,1.584,1.584,0,0,1,1.653.8.715.715,0,0,0,.214.214,1.982,1.982,0,0,1,.979,1.285Zm7.8,0L22.532,26.6a.582.582,0,0,0-.153-.4l-4.744-4.621a4.871,4.871,0,0,0,.673-.4l3.366,3.275a.536.536,0,0,0,.765,0,.507.507,0,0,0,.153-.367l.122-3.979c.122,0,.214-.031.337-.031l.184,6.549a.523.523,0,0,0,.551.52A.565.565,0,0,0,24.154,27l4.223-4.285A4.463,4.463,0,0,0,29.3,22.5c.092.031.153.061.245.092l-3.275,3.336-2.785,2.816a.582.582,0,0,0-.153.4l.367,10.711H22.1Zm8.508,0a2.13,2.13,0,0,1,1.01-1.285.488.488,0,0,0,.275-.367A1.519,1.519,0,0,1,34.039,37.1a.527.527,0,0,0,.52-.061,1.449,1.449,0,0,1,1.959.337.518.518,0,0,0,.52.214,1.584,1.584,0,0,1,1.653.8.715.715,0,0,0,.214.214,1.982,1.982,0,0,1,.979,1.285Z" transform="translate(-4.774 -4.635)" fill="#396"/>
</svg>
